# xmcd CD database file
#
# Track frame offsets:
#	225
#	46621
#	71957
#	104851
#	156684
#	187794
#	222081
#
# Disc length: 3326 seconds
#
# Revision: 0
# Processed by: cddbd v1.5.2PL0 Copyright (c) Steve Scherf et al.
# Submitted via: CDex 1.84
#
DISCID=670cfb07
DTITLE=Naturescapes - Rain Forest Symphony No. 2
DYEAR=1996
DGENRE=New Age
TTITLE0=The Hummingbird and the Volcano
TTITLE1=A Day in the Life of a Jungle
TTITLE2=Dolphin Quest
TTITLE3=Storm at Sundown
TTITLE4=Echoes of the Whale
TTITLE5=Requiem for a Volcano
TTITLE6=Reunion
EXTD=YEAR: 1996
EXTT0=
EXTT1=
EXTT2=
EXTT3=
EXTT4=
EXTT5=
EXTT6=
PLAYORDER=
